<?xml version="1.0" encoding="UTF-8"?>
<svg version="1.1" xmlns="http://www.w3.org/2000/svg" width="500" height="500">
<path d="M0 0 C0.92095372 -0.00453111 1.84190745 -0.00906223 2.79076886 -0.01373065 C5.87205876 -0.02637546 8.95317192 -0.0247542 12.03448486 -0.02310181 C14.24571968 -0.02908704 16.4569524 -0.03589257 18.66818237 -0.04345703 C24.67245043 -0.06112569 30.67666148 -0.06581281 36.68095303 -0.0670886 C40.43362203 -0.06851038 44.18627655 -0.0727805 47.93894196 -0.07808304 C60.35912347 -0.09563198 72.77927723 -0.10492293 85.19946966 -0.10342209 C86.20303168 -0.10330222 86.20303168 -0.10330222 87.22686768 -0.10317993 C87.8967305 -0.10309817 88.56659333 -0.10301641 89.25675502 -0.10293217 C100.10697555 -0.10211968 110.95705712 -0.12124935 121.80723748 -0.14945666 C132.96070106 -0.17822249 144.11411384 -0.19162909 155.26761937 -0.19026911 C161.5243904 -0.18975961 167.78100418 -0.19543664 174.03774261 -0.21662521 C179.92455626 -0.2360166 185.81106282 -0.23612561 191.69788742 -0.22159195 C193.85452346 -0.21950383 196.01117877 -0.22420487 198.16778183 -0.23631287 C201.12018801 -0.25181085 204.07154133 -0.24242682 207.02392578 -0.22705078 C207.87005896 -0.23733791 208.71619215 -0.24762503 209.58796573 -0.25822389 C215.96957423 -0.18517035 221.00408942 1.58914549 226.76593018 4.26742554 C226.76593018 4.92742554 226.76593018 5.58742554 226.76593018 6.26742554 C227.42593018 6.26742554 228.08593018 6.26742554 228.76593018 6.26742554 C233.23881177 12.51416976 233.32613898 17.67801869 233.22686768 25.22055054 C233.22595123 26.35772522 233.22503479 27.4948999 233.22409058 28.66653442 C233.2180682 31.06023353 233.20236354 33.45392558 233.17755127 35.84750366 C233.14091438 39.51900835 233.13653306 43.18950664 233.13702393 46.86117554 C233.12719711 49.18930929 233.11554202 51.5174362 233.10186768 53.84555054 C233.09964203 54.94554382 233.09741638 56.04553711 233.09512329 57.17886353 C233.08236359 58.19712219 233.06960388 59.21538086 233.05645752 60.26449585 C233.04883392 61.160495 233.04121033 62.05649414 233.03335571 62.97964478 C232.76593018 65.26742554 232.76593018 65.26742554 230.76593018 68.26742554 C230.10593018 68.26742554 229.44593018 68.26742554 228.76593018 68.26742554 C228.76593018 68.92742554 228.76593018 69.58742554 228.76593018 70.26742554 C228.10593018 70.26742554 227.44593018 70.26742554 226.76593018 70.26742554 C226.42561768 71.31930054 226.42561768 71.31930054 226.07843018 72.39242554 C224.4275173 76.00871089 222.47504667 78.3551253 219.76593018 81.26742554 C219.10593018 81.26742554 218.44593018 81.26742554 217.76593018 81.26742554 C217.75046898 80.10897629 217.75046898 80.10897629 217.73469543 78.92712402 C217.63682024 71.65789414 217.53432017 64.38875132 217.42659092 57.11966133 C217.37136699 53.38232518 217.31794786 49.64498119 217.26861572 45.90756226 C217.22096431 42.30245939 217.16862125 38.69745269 217.11298943 35.09246445 C217.09256939 33.71534487 217.07385571 32.33819892 217.05685616 30.96103287 C217.03280471 29.03592154 217.00218767 27.11089559 216.97125244 25.18588257 C216.95570816 24.08890045 216.94016388 22.99191833 216.92414856 21.86169434 C216.93696823 19.28288801 216.93696823 19.28288801 215.76593018 17.26742554 C141.84593018 16.93742554 67.92593018 16.60742554 -8.23406982 16.26742554 C-9.07767602 19.64185033 -9.35929754 21.99671613 -9.35991096 25.40521336 C-9.36251871 26.44937934 -9.36512646 27.49354531 -9.36781323 28.56935269 C-9.36558251 29.71515755 -9.36335179 30.86096242 -9.36105347 32.04148865 C-9.36261346 33.25968825 -9.36417345 34.47788786 -9.36578071 35.7330026 C-9.36908349 39.11586191 -9.36788895 42.49866585 -9.36479449 45.88152182 C-9.36253559 49.52912502 -9.36602244 53.17672333 -9.36877441 56.82432556 C-9.37322569 63.97030048 -9.37225852 71.11626491 -9.36936177 78.26224024 C-9.36710541 84.06828003 -9.36679623 89.87431688 -9.36788559 95.68035698 C-9.36803882 96.5060065 -9.36819206 97.33165602 -9.36834993 98.18232523 C-9.36866965 99.8594879 -9.36899386 101.53665057 -9.36932252 103.21381324 C-9.37217539 118.94757806 -9.36889323 134.68133706 -9.36352216 150.41510092 C-9.35905346 163.9239028 -9.35983096 177.43269608 -9.36444092 190.9414978 C-9.36978866 206.61967356 -9.37190159 222.29784421 -9.36882865 237.97602075 C-9.3685101 239.64678379 -9.36819573 241.31754682 -9.36788559 242.98830986 C-9.36773131 243.81041263 -9.36757704 244.63251541 -9.36741809 245.47953038 C-9.3665536 251.28105863 -9.36801434 257.08258365 -9.37036514 262.8841114 C-9.37316551 269.95060239 -9.37241981 277.01708227 -9.3670844 284.08357198 C-9.36445073 287.69097733 -9.36343671 291.29836412 -9.36673355 294.90576935 C-9.37024837 298.81063882 -9.36606034 302.7154777 -9.36105347 306.62034607 C-9.36328419 307.76838166 -9.36551491 308.91641725 -9.36781323 310.09924179 C-9.36520548 311.14080002 -9.36259773 312.18235826 -9.35991096 313.25547886 C-9.35966744 314.60839758 -9.35966744 314.60839758 -9.35941899 315.988648 C-9.32540593 318.43282519 -9.32540593 318.43282519 -8.23406982 321.26742554 C-7.29462399 321.26373837 -6.35517815 321.26005119 -5.38726425 321.25625229 C17.45491693 321.16751612 40.29707581 321.10175206 63.13939285 321.06017685 C74.18570322 321.0395378 85.23189984 321.01139151 96.27813721 320.96566772 C105.90427403 320.92584111 115.53032848 320.9000025 125.1565454 320.89107156 C130.25518598 320.88584974 135.3535909 320.87354866 140.45215607 320.84450531 C145.24887047 320.81740219 150.0452516 320.8089702 154.84203529 320.81499481 C156.60451123 320.81389229 158.36699805 320.80590804 160.12940788 320.79060364 C162.5325256 320.77075506 164.93437855 320.77546682 167.33752441 320.78640747 C168.03791659 320.7747561 168.73830876 320.76310474 169.45992494 320.7511003 C172.84608677 320.79288366 174.51645064 321.07455976 177.23020554 323.17248917 C178.76593018 325.26742554 178.76593018 325.26742554 178.76593018 327.26742554 C179.32796143 327.53555054 179.88999268 327.80367554 180.46905518 328.07992554 C182.92143664 329.34782344 185.205207 330.75714895 187.51593018 332.26742554 C188.7147583 333.04086304 188.7147583 333.04086304 189.93780518 333.82992554 C190.84272705 334.54148804 190.84272705 334.54148804 191.76593018 335.26742554 C191.76593018 335.92742554 191.76593018 336.58742554 191.76593018 337.26742554 C166.0095668 337.36094847 140.25322894 337.43144381 114.49672985 337.47467422 C102.5370077 337.49528214 90.57739117 337.52336898 78.61773682 337.56918335 C68.19131104 337.6091052 57.76496178 337.63487122 47.3384617 337.64377952 C41.81986123 337.64898517 36.30147963 337.66118365 30.78294945 337.69034576 C25.58321917 337.71759926 20.38379685 337.72585045 15.18400192 337.71985626 C13.28095002 337.72095206 11.37788728 337.72884645 9.47489738 337.74424744 C-0.44944241 337.82059114 -9.12894437 337.81454392 -18.23406982 333.26742554 C-18.23406982 332.60742554 -18.23406982 331.94742554 -18.23406982 331.26742554 C-18.83219482 331.10242554 -19.43031982 330.93742554 -20.04656982 330.76742554 C-23.44773991 328.43519462 -24.28238701 325.12277835 -25.23406982 321.26742554 C-25.65389021 317.08706611 -25.63919012 312.9342151 -25.61502075 308.73554993 C-25.61970072 307.48408647 -25.6243807 306.23262301 -25.62920249 304.94323641 C-25.64168225 301.48586097 -25.63555607 298.02873517 -25.62624383 294.57135904 C-25.61944127 290.83648099 -25.62994049 287.10164512 -25.63818359 283.36677551 C-25.65150988 276.05688348 -25.64864824 268.74708395 -25.63994567 261.43718832 C-25.6331657 255.49587889 -25.63225376 249.55459535 -25.63551712 243.61328316 C-25.63597682 242.7671276 -25.63643652 241.92097204 -25.63691015 241.0491754 C-25.63786934 239.33014578 -25.63884198 237.61111617 -25.63982792 235.89208657 C-25.64837844 219.78046599 -25.63855271 203.66889666 -25.62242682 187.55728448 C-25.60902152 173.73594843 -25.61135414 159.91468796 -25.62518311 146.09335327 C-25.64124069 130.03714506 -25.64755706 113.98098172 -25.63834631 97.9247666 C-25.63739068 96.21242846 -25.63644757 94.50009031 -25.63551712 92.78775215 C-25.63505429 91.9452793 -25.63459147 91.10280644 -25.63411462 90.23480411 C-25.63152545 84.30084718 -25.6358941 78.36691875 -25.64295578 72.43296623 C-25.65137285 65.20123236 -25.64908619 57.96959618 -25.63311355 50.73787349 C-25.62523397 47.04888561 -25.62213384 43.36006055 -25.632061 39.67107391 C-25.64266156 35.67134693 -25.62999674 31.67203041 -25.61502075 27.6723175 C-25.62171292 26.50753417 -25.62840508 25.34275084 -25.63530004 24.14267105 C-25.58509265 17.24411607 -25.20987171 11.81965394 -20.62078857 6.34164429 C-20.06004639 5.8840271 -19.4993042 5.42640991 -18.92156982 4.95492554 C-18.36856201 4.48441772 -17.8155542 4.01390991 -17.24578857 3.52914429 C-11.73509486 0.07292279 -6.28342418 -0.02275997 0 0 Z " fill="#454545" transform="translate(124.23406982421875,71.73257446289063)"/>
<path d="M0 0 C4.28364086 4.15850079 7.14115433 7.68979425 7.5625 13.75 C7.57072404 19.98382334 5.16215156 24.06887953 1.84594727 29.13964844 C0.23849074 31.62764307 -0.94678497 33.758049 -1.5859375 36.6640625 C-0.70005215 40.19579208 1.36376796 41.08024282 4.375 43 C9.5839893 46.33806033 9.5839893 46.33806033 11.4140625 49.25 C12.92817665 56.35624242 10.79129005 61.05017899 6.99951172 66.90307617 C6.46342285 67.69818604 5.92733398 68.4932959 5.375 69.3125 C4.2812227 70.98175294 3.18747259 72.6510237 2.09375 74.3203125 C1.29710937 75.51962402 1.29710937 75.51962402 0.484375 76.74316406 C-0.80509142 78.70366203 -2.05608148 80.67865399 -3.28125 82.6796875 C-3.8896875 83.67226562 -4.498125 84.66484375 -5.125 85.6875 C-5.64320313 86.53699219 -6.16140625 87.38648438 -6.6953125 88.26171875 C-7.12585938 88.83535156 -7.55640625 89.40898437 -8 90 C-8.66 90 -9.32 90 -10 90 C-10.144375 90.61875 -10.28875 91.2375 -10.4375 91.875 C-11 94 -11 94 -12 96 C-12.66 96 -13.32 96 -14 96 C-14.10441406 96.56203125 -14.20882812 97.1240625 -14.31640625 97.703125 C-15.12613235 100.42380471 -16.36203338 102.39257807 -17.9375 104.75 C-18.46214844 105.54921875 -18.98679687 106.3484375 -19.52734375 107.171875 C-20.01332031 107.77515625 -20.49929688 108.3784375 -21 109 C-21.66 109 -22.32 109 -23 109 C-23.37125 110.051875 -23.37125 110.051875 -23.75 111.125 C-25.74367542 115.71045347 -27.80988036 119.20658691 -32 122 C-34.73178163 121.79511638 -36.52728333 121.28363 -38.875 119.875 C-40.71081192 116.81531347 -39.77862197 114.35406389 -39 111 C-38.01 109.515 -38.01 109.515 -37 108 C-36.34 108 -35.68 108 -35 108 C-34.71125 107.236875 -34.4225 106.47375 -34.125 105.6875 C-33 103 -33 103 -31 100 C-30.34 100 -29.68 100 -29 100 C-28.75507813 99.30003906 -28.51015625 98.60007812 -28.2578125 97.87890625 C-26.80941589 94.56378729 -24.97186191 91.88552711 -22.875 88.9375 C-22.06951027 87.7935332 -21.2648419 86.64898768 -20.4609375 85.50390625 C-20.05327148 84.92527832 -19.64560547 84.34665039 -19.22558594 83.75048828 C-17.28540856 80.97935844 -15.38905973 78.18131075 -13.5 75.375 C-12.8503125 74.41335937 -12.200625 73.45171875 -11.53125 72.4609375 C-9.87432153 70.01079109 -9.87432153 70.01079109 -9 67 C-8.34 67 -7.68 67 -7 67 C-6.7525 66.13375 -6.505 65.2675 -6.25 64.375 C-4.93221387 60.81697746 -3.19813178 58.0773845 -1 55 C-1.66 55 -2.32 55 -3 55 C-3 54.34 -3 53.68 -3 53 C-4.98 52.67 -6.96 52.34 -9 52 C-9.99 53.98 -10.98 55.96 -12 58 C-12.66 58 -13.32 58 -14 58 C-14.12439453 58.58918213 -14.24878906 59.17836426 -14.37695312 59.78540039 C-15.38432145 63.36605796 -17.51444186 66.3284515 -19.5 69.4375 C-19.94996338 70.1490625 -20.39992676 70.860625 -20.86352539 71.59375 C-24.676874 77.58261567 -28.67587603 83.42038915 -32.765625 89.22412109 C-34.17809707 91.25622588 -35.55877324 93.308139 -36.9375 95.36328125 C-37.43580322 96.10191406 -37.93410645 96.84054688 -38.44750977 97.6015625 C-39.42710136 99.05513967 -40.40170694 100.51209172 -41.37084961 101.97265625 C-42.52985629 103.68390172 -43.75890258 105.34732498 -45 107 C-45.66 107 -46.32 107 -47 107 C-47.268125 107.763125 -47.53625 108.52625 -47.8125 109.3125 C-49.6612529 113.49651972 -49.6612529 113.49651972 -52 115 C-57.9338923 114.81289529 -61.55402472 111.85061887 -66.125 108.4375 C-67.62521315 107.34355717 -69.12652291 106.25111669 -70.62890625 105.16015625 C-71.36512207 104.62277832 -72.10133789 104.08540039 -72.85986328 103.53173828 C-76.79934684 100.71217179 -80.88585598 98.12362989 -84.97265625 95.5234375 C-85.97619141 94.76933594 -85.97619141 94.76933594 -87 94 C-87 93.34 -87 92.68 -87 92 C-88.32 91.67 -89.64 91.34 -91 91 C-91.61519336 85.43797787 -89.72973867 82.48338437 -86.4375 78.25 C-85.51885584 77.02394327 -84.60089162 75.7973768 -83.68359375 74.5703125 C-83.22839355 73.96993164 -82.77319336 73.36955078 -82.30419922 72.75097656 C-79.87162311 69.48507693 -77.63840793 66.07954263 -75.375 62.6953125 C-74.92125 62.13585937 -74.4675 61.57640625 -74 61 C-73.34 61 -72.68 61 -72 61 C-71.77441406 60.31292969 -71.54882812 59.62585938 -71.31640625 58.91796875 C-69.6669943 55.26185383 -67.43267533 52.42882223 -64.9375 49.3125 C-61.67441696 45.35070369 -61.67441696 45.35070369 -59 41 C-58.34 41 -57.68 41 -57 41 C-56.67 39.68 -56.34 38.36 -56 37 C-55.34 37 -54.68 37 -54 37 C-53.814375 36.34 -53.62875 35.68 -53.4375 35 C-51.74172702 31.46099551 -49.56834844 29.01406192 -46.93359375 26.1328125 C-45.6374402 24.70311586 -44.37920297 23.23817265 -43.16015625 21.7421875 C-42.57105469 21.02289063 -41.98195313 20.30359375 -41.375 19.5625 C-40.84648437 18.90378906 -40.31796875 18.24507812 -39.7734375 17.56640625 C-38 16 -38 16 -35.4140625 15.52734375 C-34.21910156 15.26630859 -34.21910156 15.26630859 -33 15 C-31.89978294 13.23448984 -31.89978294 13.23448984 -31 11 C-22.50129769 0.29505321 -13.8212821 -7.79017718 0 0 Z M-32 25 C-32.66 26.32 -33.32 27.64 -34 29 C-31.525 29.99 -31.525 29.99 -29 31 C-29 31.66 -29 32.32 -29 33 C-27.02 33.66 -25.04 34.32 -23 35 C-23 35.66 -23 36.32 -23 37 C-20.22132295 39.26916093 -20.22132295 39.26916093 -17 41 C-16.01 40.67 -15.02 40.34 -14 40 C-14.06888449 38.12597464 -14.06888449 38.12597464 -15 36 C-17.58132815 33.86102869 -17.58132815 33.86102869 -20.75 31.9375 C-21.79671875 31.26589844 -22.8434375 30.59429687 -23.921875 29.90234375 C-26.60200056 28.24597173 -29.29175333 26.60990219 -32 25 Z " fill="#424242" transform="translate(404,123)"/>
<path d="M0 0 C0 0.66 0 1.32 0 2 C0.66 2 1.32 2 2 2 C2 2.66 2 3.32 2 4 C2.60328125 4.27585937 3.2065625 4.55171875 3.828125 4.8359375 C12.42978512 9.44617979 17.82749299 22.10208528 20.64697266 31.05419922 C25.1180146 48.0012234 23.10607499 64.74473603 14.55078125 80.0625 C7.31542363 91.85820183 -3.13368186 100.13003846 -16 105 C-16.9384375 105.35578125 -17.876875 105.7115625 -18.84375 106.078125 C-36.88721792 111.65335385 -54.56293372 107.67474098 -70.83203125 99.171875 C-71.54746094 98.78515625 -72.26289063 98.3984375 -73 98 C-73 97.34 -73 96.68 -73 96 C-73.66 96 -74.32 96 -75 96 C-75 95.34 -75 94.68 -75 94 C-75.87205078 93.62101562 -75.87205078 93.62101562 -76.76171875 93.234375 C-87.0223157 87.5758259 -92.71957813 74.04893092 -95.9375 63.3125 C-99.16644811 48.19698668 -97.91290561 32.13086789 -90.125 18.625 C-89.1084607 17.06665042 -88.06697991 15.52425701 -87 14 C-86.45601563 13.21109375 -85.91203125 12.4221875 -85.3515625 11.609375 C-82.45698451 7.57108571 -82.45698451 7.57108571 -81 6 C-80.34 6 -79.68 6 -79 6 C-79 5.34 -79 4.68 -79 4 C-78.34 4 -77.68 4 -77 4 C-77 3.34 -77 2.68 -77 2 C-74.94741373 0.42716023 -72.9238089 -0.98692216 -70.75 -2.375 C-70.11827881 -2.77912109 -69.48655762 -3.18324219 -68.83569336 -3.59960938 C-47.01472115 -17.09182018 -20.73484062 -13.82322708 0 0 Z M-68 10 C-68 10.66 -68 11.32 -68 12 C-68.66 12 -69.32 12 -70 12 C-70 12.66 -70 13.32 -70 14 C-70.66 14 -71.32 14 -72 14 C-72 14.66 -72 15.32 -72 16 C-72.66 16 -73.32 16 -74 16 C-74.99 18.475 -74.99 18.475 -76 21 C-76.66 21 -77.32 21 -78 21 C-78.79807198 22.68448018 -79.58812301 24.37276127 -80.375 26.0625 C-81.03628906 27.47208984 -81.03628906 27.47208984 -81.7109375 28.91015625 C-86.25711597 39.80720828 -87.27836692 54.47020403 -83.109375 65.73828125 C-80.80346017 70.43942452 -78.03306808 74.73926151 -75 79 C-74.32324219 79.99193359 -74.32324219 79.99193359 -73.6328125 81.00390625 C-66.77844379 90.06870747 -54.84572544 94.86372075 -44 97 C-29.86207682 98.54087477 -17.14043785 94.83435026 -6 86 C3.28434211 77.53702149 10.69979271 65.7607573 11.30078125 52.9140625 C11.3200707 51.4844998 11.32358754 50.05464984 11.3125 48.625 C11.30758545 47.87404053 11.3026709 47.12308105 11.29760742 46.34936523 C11.17902867 40.74089429 10.42354043 36.10219037 8 31 C7.67128906 30.2059375 7.34257812 29.411875 7.00390625 28.59375 C3.37152972 20.44918256 -2.48731307 12.93963137 -10 8 C-10.66 8 -11.32 8 -12 8 C-12 7.34 -12 6.68 -12 6 C-13.87144695 5.17934931 -15.74734336 4.3688416 -17.625 3.5625 C-19.19121094 2.88380859 -19.19121094 2.88380859 -20.7890625 2.19140625 C-36.62375723 -3.68399751 -54.68080848 0.19953107 -68 10 Z " fill="#4A4A4A" transform="translate(388,300)"/>
<path d="M0 0 C2.82421875 1.8125 2.82421875 1.8125 5.6875 4 C9.19686161 6.73625908 9.19686161 6.73625908 13 9 C13 9.66 13 10.32 13 11 C13.99 11 14.98 11 16 11 C16 11.66 16 12.32 16 13 C16.71542969 13.26167969 17.43085938 13.52335938 18.16796875 13.79296875 C21.12643637 15.05388805 23.63983125 16.52676132 26.3125 18.3125 C27.19550781 18.88613281 28.07851563 19.45976562 28.98828125 20.05078125 C31 22 31 22 31.5703125 24.41015625 C30.78424316 27.9797725 29.11194638 29.52510795 26.5625 32.125 C25.655 33.07761719 24.7475 34.03023437 23.8125 35.01171875 C23.11060547 35.74720947 23.11060547 35.74720947 22.39453125 36.49755859 C18.0888393 41.13642908 14.01230536 46.13837632 10.37109375 51.31640625 C9.91863281 51.87199219 9.46617187 52.42757812 9 53 C8.34 53 7.68 53 7 53 C6.773125 53.515625 6.54625 54.03125 6.3125 54.5625 C4.51782382 57.89547005 2.50034985 61.14703671 0 64 C-0.66 64 -1.32 64 -2 64 C-2 64.66 -2 65.32 -2 66 C-2.66 66 -3.32 66 -4 66 C-4.66 67.65 -5.32 69.3 -6 71 C-6.66 71 -7.32 71 -8 71 C-8.25652344 71.56589844 -8.51304687 72.13179688 -8.77734375 72.71484375 C-10.65541297 76.22497312 -13.19627338 79.11732235 -15.71875 82.18359375 C-17.28587655 84.11835101 -18.8048125 86.09283616 -20.28125 88.09765625 C-21.0340625 89.09667969 -21.786875 90.09570312 -22.5625 91.125 C-23.24441406 92.05570312 -23.92632812 92.98640625 -24.62890625 93.9453125 C-27 96 -27 96 -30.5625 96.421875 C-34.68225991 95.9162681 -36.82711001 94.63117706 -40 92 C-40 91.34 -40 90.68 -40 90 C-41.05767578 89.63261719 -41.05767578 89.63261719 -42.13671875 89.2578125 C-45.39763037 87.82532472 -47.96134115 86.00478131 -50.8125 83.875 C-51.78832031 83.15054688 -52.76414062 82.42609375 -53.76953125 81.6796875 C-54.50558594 81.12539063 -55.24164063 80.57109375 -56 80 C-55.76256091 74.3014619 -54.18582356 71.37077125 -50.5703125 66.9921875 C-48.81670543 64.76746211 -47.45394728 62.43110304 -46 60 C-44.97404371 58.42799153 -43.93721431 56.86303526 -42.890625 55.3046875 C-42.3037793 54.4283667 -41.71693359 53.5520459 -41.11230469 52.64916992 C-40.49774414 51.73369385 -39.88318359 50.81821777 -39.25 49.875 C-34.78125259 43.21261861 -30.3702618 36.54334757 -26.234375 29.66796875 C-25.82703125 29.11753906 -25.4196875 28.56710938 -25 28 C-24.34 28 -23.68 28 -23 28 C-22.79375 27.195625 -22.5875 26.39125 -22.375 25.5625 C-20.92123096 21.79591658 -19.07770284 18.95001518 -16.7890625 15.65234375 C-13.93148538 11.41589208 -11.35404947 7.01143168 -8.734375 2.625 C-6.05347616 -1.43257662 -4.47643495 -1.33204359 0 0 Z " fill="#424242" transform="translate(314,220)"/>
<path d="M0 0 C3.63 0 7.26 0 11 0 C13.62090539 6.54832818 15.45593317 13.16779312 17.1875 20 C17.46013672 21.06089844 17.73277344 22.12179688 18.01367188 23.21484375 C18.67971748 25.80891612 19.3417243 28.40394715 20 31 C21.99926186 28.00110721 22.61900452 26.05689791 23.4375 22.59765625 C23.69273437 21.54255859 23.94796875 20.48746094 24.2109375 19.40039062 C24.60152344 17.74813477 24.60152344 17.74813477 25 16.0625 C25.51640736 13.88566403 26.03707471 11.70983316 26.5625 9.53515625 C26.79066406 8.569729 27.01882812 7.60430176 27.25390625 6.60961914 C28 4 28 4 30 0 C33.96 0 37.92 0 42 0 C43.7695743 3.53914861 44.57414575 6.12637593 45.375 9.9375 C47.15517023 21.22219239 47.15517023 21.22219239 52 31 C52.30236572 29.80455566 52.30236572 29.80455566 52.61083984 28.58496094 C53.52748472 24.97208491 54.45115969 21.36104248 55.375 17.75 C55.85066406 15.86861328 55.85066406 15.86861328 56.3359375 13.94921875 C56.6453125 12.74394531 56.9546875 11.53867188 57.2734375 10.296875 C57.55622559 9.18666992 57.83901367 8.07646484 58.13037109 6.93261719 C58.87725791 4.41391857 59.72942317 2.28801191 61 0 C62.81242052 -0.02687279 64.62495233 -0.04633715 66.4375 -0.0625 C67.44683594 -0.07410156 68.45617187 -0.08570312 69.49609375 -0.09765625 C72 0 72 0 73 1 C72.55301491 7.55578129 71.20332003 13.47643294 69.3125 19.75 C68.77309041 21.58323124 68.23403925 23.41656798 67.6953125 25.25 C67.41719727 26.1884375 67.13908203 27.126875 66.85253906 28.09375 C65.98323438 31.0571529 65.13992474 34.0268264 64.3046875 37 C63.89802856 38.44487793 63.89802856 38.44487793 63.4831543 39.91894531 C62.95944224 41.78238963 62.43742386 43.64631092 61.91723633 45.51074219 C61.68029053 46.34766602 61.44334473 47.18458984 61.19921875 48.046875 C60.99127686 48.78776367 60.78333496 49.52865234 60.5690918 50.29199219 C60 52 60 52 59 53 C56.64686445 53.07271741 54.29166332 53.08370868 51.9375 53.0625 C50.64714844 53.05347656 49.35679687 53.04445312 48.02734375 53.03515625 C47.02832031 53.02355469 46.02929688 53.01195312 45 53 C37 30.14893617 37 30.14893617 37 22 C36.34 22 35.68 22 35 22 C34.896875 22.93328125 34.79375 23.8665625 34.6875 24.828125 C33.9573929 29.93373313 32.45215966 34.81128721 31 39.75 C30.72671875 40.69488281 30.4534375 41.63976562 30.171875 42.61328125 C29.16168148 46.09448735 28.14636483 49.5609055 27 53 C24.70890403 53.08075665 22.41700733 53.13907731 20.125 53.1875 C18.21074219 53.23970703 18.21074219 53.23970703 16.2578125 53.29296875 C15.18273437 53.19628906 14.10765625 53.09960938 13 53 C10.76219104 49.64328656 10.12756764 46.61675964 9.3125 42.75 C7.45904385 34.35721777 5.00519672 26.20014387 2.37426758 18.02050781 C-2.03260479 4.06520958 -2.03260479 4.06520958 0 0 Z " fill="#484848" transform="translate(143,115)"/>
<path d="M0 0 C1.05011261 -0.00426498 2.10022522 -0.00852997 3.18215942 -0.01292419 C4.90981789 -0.01224442 4.90981789 -0.01224442 6.67237854 -0.0115509 C7.88558777 -0.01490952 9.098797 -0.01826813 10.34877014 -0.02172852 C13.67728642 -0.02960806 17.00574033 -0.0329065 20.33426166 -0.0335443 C23.1126349 -0.03449379 25.89100216 -0.03817251 28.6693731 -0.0417164 C35.22392617 -0.04985974 41.77846552 -0.05230072 48.33302307 -0.05158997 C55.09552263 -0.05098903 61.85794245 -0.06154424 68.62042183 -0.07733363 C74.42602077 -0.09040605 80.23159364 -0.095774 86.03720719 -0.09513456 C89.50481822 -0.0948795 92.97235838 -0.09773482 96.43995476 -0.10831261 C100.30652361 -0.11978545 104.17298292 -0.11524859 108.03956604 -0.10920715 C109.18931412 -0.11482666 110.33906219 -0.12044617 111.52365112 -0.12623596 C113.10304977 -0.11994423 113.10304977 -0.11994423 114.71435547 -0.11352539 C115.62856483 -0.11407016 116.54277418 -0.11461493 117.48468685 -0.1151762 C120.06351323 0.14830738 121.70117983 0.82881231 123.92066956 2.13371277 C124.02891799 3.73639097 124.10637601 5.34117025 124.17066956 6.94621277 C124.21707581 7.83953308 124.26348206 8.73285339 124.31129456 9.65324402 C123.92066956 12.13371277 123.92066956 12.13371277 122.22122955 13.76493263 C119.48300643 15.39411223 117.89116584 15.51073603 114.72108459 15.5146637 C113.66959732 15.52312317 112.61811005 15.53158264 111.53475952 15.54029846 C110.38658249 15.53422577 109.23840546 15.52815308 108.05543518 15.52189636 C106.84207993 15.52715332 105.62872467 15.53241028 104.37860107 15.53782654 C101.05409805 15.5487678 97.73015515 15.54620373 94.40568352 15.53668928 C90.92552313 15.5290903 87.44538656 15.53613895 83.96522522 15.54084778 C78.12106533 15.54630465 72.2770192 15.53911558 66.43287659 15.52482605 C59.67768121 15.50849957 52.92275748 15.51378813 46.16756868 15.53030527 C40.36617601 15.54392215 34.56486508 15.54583884 28.76346159 15.53798926 C25.29920213 15.53331382 21.83507033 15.53268424 18.37081909 15.54259872 C14.50907341 15.55287895 10.64763164 15.5386276 6.78590393 15.52189636 C5.6377269 15.52796906 4.48954987 15.53404175 3.30657959 15.54029846 C2.25509232 15.53183899 1.20360504 15.52337952 0.12025452 15.5146637 C-0.79265602 15.51353262 -1.70556656 15.51240154 -2.64614105 15.51123619 C-5.59684321 15.05341767 -6.95394773 14.21156857 -9.07933044 12.13371277 C-9.965571 8.65205344 -10.42038066 6.21370512 -9.32933044 2.75871277 C-6.92859126 -0.36224817 -3.62732618 0.00665202 0 0 Z " fill="#4B4A4B" transform="translate(151.07933044433594,192.8662872314453)"/>
<path d="M0 0 C2.88247576 2.34201156 2.97497895 3.79983163 3.4375 7.5 C2.92936009 11.5651193 2.0381085 12.42221097 -1 15 C-1.495 16.485 -1.495 16.485 -2 18 C-0.783125 17.95875 0.43375 17.9175 1.6875 17.875 C5.23882321 17.88754885 7.85602221 18.20344126 11 20 C13.08068562 22.24073836 13.94428453 23.50970383 14.29296875 26.578125 C14.25816406 27.45984375 14.22335937 28.3415625 14.1875 29.25 C14.14689453 30.58804687 14.14689453 30.58804687 14.10546875 31.953125 C14.07066406 32.62859375 14.03585937 33.3040625 14 34 C16.89432759 33.43072232 17.79531785 33.23291417 19.8125 30.9375 C22 29 22 29 25.4375 28.4375 C29 29 29 29 31.9375 31.0625 C34 34 34 34 34.625 37.5 C33.83397068 41.9297642 32.63525215 43.39210172 29 46 C25.08363212 46.55948113 22.31064521 46.20709681 19 44 C18.67 43.34 18.34 42.68 18 42 C15.97536745 41.34786708 15.97536745 41.34786708 14 41 C14.08701172 41.99580078 14.08701172 41.99580078 14.17578125 43.01171875 C14.40275892 47.453996 14.45756302 50.21109823 12.1875 54.125 C7.52877663 56.86542551 3.27778232 56.41593731 -2 56 C-2 57.32 -2 58.64 -2 60 C-1.01 60.33 -0.02 60.66 1 61 C3.50031654 64.75047482 3.53603554 66.55856266 3 71 C0.40783917 74.69186542 -1.04149064 75.82883761 -5.5 76.625 C-9.95850936 75.82883761 -11.40783917 74.69186542 -14 71 C-14.54218777 67.13691213 -14.55058839 64.97604306 -12.625 61.5625 C-11 60 -11 60 -9 60 C-9 58.68 -9 57.36 -9 56 C-10.12148438 56.05220703 -10.12148438 56.05220703 -11.265625 56.10546875 C-12.25046875 56.13253906 -13.2353125 56.15960938 -14.25 56.1875 C-15.22453125 56.22230469 -16.1990625 56.25710938 -17.203125 56.29296875 C-20.42776918 55.95519178 -21.70790797 55.25529239 -24 53 C-24.96070434 50.11788698 -25.10581883 48.30149956 -25.0625 45.3125 C-25.05347656 44.50425781 -25.04445313 43.69601562 -25.03515625 42.86328125 C-25.02355469 42.24839844 -25.01195312 41.63351562 -25 41 C-27.66389844 41.96196332 -29.75417555 42.79382465 -31.9375 44.625 C-34.75907621 46.5060508 -36.67529425 46.3536921 -40 46 C-40.99 45.34 -41.98 44.68 -43 44 C-43 43.34 -43 42.68 -43 42 C-43.66 42 -44.32 42 -45 42 C-45.6147541 34.00819672 -45.6147541 34.00819672 -43.4375 30.4375 C-40.02983728 28.42785276 -37.89581737 28.45321861 -34 29 C-31.3125 30.9375 -31.3125 30.9375 -29 33 C-26.9180856 33.64460577 -26.9180856 33.64460577 -25 34 C-25.01160156 33.31292969 -25.02320313 32.62585938 -25.03515625 31.91796875 C-25.04417969 31.01691406 -25.05320312 30.11585938 -25.0625 29.1875 C-25.07410156 28.29417969 -25.08570313 27.40085937 -25.09765625 26.48046875 C-25 24 -25 24 -24 21 C-19.04518673 17.65550104 -14.74389224 17.65536647 -9 18 C-10.01620005 14.95139986 -10.77391571 14.13333078 -13 12 C-14.36952673 9.26094655 -14.12621361 7.02912668 -14 4 C-13.67 3.34 -13.34 2.68 -13 2 C-12.34 2 -11.68 2 -11 2 C-11 1.34 -11 0.68 -11 0 C-7.08124135 -1.30625288 -3.9735098 -1.05132447 0 0 Z M-6 6 C-6 6.99 -6 7.98 -6 9 C-5.34 8.34 -4.68 7.68 -4 7 C-4.66 6.67 -5.32 6.34 -6 6 Z M-17 27 C-17.09883336 28.46478506 -17.13079289 29.93422958 -17.1328125 31.40234375 C-17.13410156 32.29244141 -17.13539063 33.18253906 -17.13671875 34.09960938 C-17.13285156 35.03611328 -17.12898438 35.97261719 -17.125 36.9375 C-17.12886719 37.87013672 -17.13273437 38.80277344 -17.13671875 39.76367188 C-17.13542969 40.65505859 -17.13414062 41.54644531 -17.1328125 42.46484375 C-17.13168457 43.285896 -17.13055664 44.10694824 -17.12939453 44.95288086 C-17.1293784 47.06616024 -17.1293784 47.06616024 -16 49 C-12.52085059 49.02887814 -9.04173169 49.04675687 -5.5625 49.0625 C-4.07266602 49.07506836 -4.07266602 49.07506836 -2.55273438 49.08789062 C-1.60849609 49.09111328 -0.66425781 49.09433594 0.30859375 49.09765625 C1.18314209 49.10289307 2.05769043 49.10812988 2.95874023 49.11352539 C4.99440206 49.22784809 4.99440206 49.22784809 6 48 C6.09899523 46.45044441 6.13079524 44.89646327 6.1328125 43.34375 C6.13410156 42.40402344 6.13539063 41.46429688 6.13671875 40.49609375 C6.13091797 39.01302734 6.13091797 39.01302734 6.125 37.5 C6.12886719 36.51128906 6.13273437 35.52257812 6.13671875 34.50390625 C6.13478516 33.09431641 6.13478516 33.09431641 6.1328125 31.65625 C6.13168457 30.78806641 6.13055664 29.91988281 6.12939453 29.02539062 C6.2241537 27.00395846 6.2241537 27.00395846 5 26 C3.45044441 25.90100477 1.89646327 25.86920476 0.34375 25.8671875 C-1.06583984 25.86525391 -1.06583984 25.86525391 -2.50390625 25.86328125 C-3.49261719 25.86714844 -4.48132813 25.87101562 -5.5 25.875 C-6.48871094 25.87113281 -7.47742188 25.86726563 -8.49609375 25.86328125 C-9.90568359 25.86521484 -9.90568359 25.86521484 -11.34375 25.8671875 C-12.64602539 25.86887939 -12.64602539 25.86887939 -13.97460938 25.87060547 C-15.99604154 25.7758463 -15.99604154 25.7758463 -17 27 Z M-38 36 C-37.67 36.99 -37.34 37.98 -37 39 C-36.67 38.01 -36.34 37.02 -36 36 C-36.66 36 -37.32 36 -38 36 Z M25 36 C25.33 36.99 25.66 37.98 26 39 C26.33 38.01 26.66 37.02 27 36 C26.34 36 25.68 36 25 36 Z M-7 66 C-7 66.66 -7 67.32 -7 68 C-6.01 67.67 -5.02 67.34 -4 67 C-4.99 66.67 -5.98 66.34 -7 66 Z " fill="#464646" transform="translate(356,311)"/>
<path d="M0 0 C6.97191178 0.1515633 11.8088887 3.47736178 17 8 C17 8.66 17 9.32 17 10 C18.98 10.66 20.96 11.32 23 12 C23 12.66 23 13.32 23 14 C23.9590625 14.37125 23.9590625 14.37125 24.9375 14.75 C27 16 27 16 27.78125 17.78125 C28.07796505 20.79078838 27.10871977 22.18553793 25.5625 24.75 C25.08941406 25.54921875 24.61632812 26.3484375 24.12890625 27.171875 C23.75636719 27.77515625 23.38382812 28.3784375 23 29 C22.34 29 21.68 29 21 29 C20.9071875 29.928125 20.9071875 29.928125 20.8125 30.875 C20 33 20 33 17.4375 34.25 C16.633125 34.4975 15.82875 34.745 15 35 C15 35.66 15 36.32 15 37 C13.60587891 37.77923828 13.60587891 37.77923828 12.18359375 38.57421875 C4.28620194 42.95205718 4.28620194 42.95205718 -3.1875 48 C-6 50 -6 50 -9 50 C-9 50.66 -9 51.32 -9 52 C-11.4404341 53.53656962 -12.70744102 54.02089707 -15.625 53.8125 C-18 53 -18 53 -20 50 C-19.66915751 43.06806221 -17.60680516 36.61693622 -15.625 30 C-15.32078125 28.9584375 -15.0165625 27.916875 -14.703125 26.84375 C-10.77604167 13.55208333 -10.77604167 13.55208333 -8 8 C-7.34 8 -6.68 8 -6 8 C-6 7.34 -6 6.68 -6 6 C-5.34 6 -4.68 6 -4 6 C-4 5.34 -4 4.68 -4 4 C-3.34 4 -2.68 4 -2 4 C-1.34 2.68 -0.68 1.36 0 0 Z M2 22 C0.03522036 24.69608719 -1.92765115 27.39350763 -3.88671875 30.09375 C-5.13253718 31.80703819 -6.38312758 33.51690372 -7.64453125 35.21875 C-10.16110058 38.28602328 -10.16110058 38.28602328 -11 42 C-11.66 42 -12.32 42 -13 42 C-13.33 42.99 -13.66 43.98 -14 45 C-13.67 45.66 -13.34 46.32 -13 47 C-12.34 47 -11.68 47 -11 47 C-9.15152689 44.8270767 -7.4078651 42.64597332 -5.6875 40.375 C-4.73394877 39.13214003 -3.77952763 37.88994698 -2.82421875 36.6484375 C-2.35806152 36.03581055 -1.8919043 35.42318359 -1.41162109 34.79199219 C-0.04872177 33.06185019 1.38920237 31.43157027 2.85546875 29.7890625 C5.40636652 27.05787175 5.40636652 27.05787175 5 23 C4.01 22.67 3.02 22.34 2 22 Z " fill="#454545" transform="translate(252,305)"/>
<path d="M0 0 C1.23679001 -0.00262848 1.23679001 -0.00262848 2.49856567 -0.00531006 C5.23287033 -0.00972276 7.96711066 -0.00679235 10.70141602 -0.00341797 C12.5970918 -0.00409124 14.4927675 -0.00506146 16.38844299 -0.00631714 C20.36557841 -0.00779338 24.3426914 -0.00564216 28.31982422 -0.00097656 C33.42229469 0.0047168 38.52471252 0.00144374 43.62718105 -0.00454903 C47.54332375 -0.00815994 51.45945393 -0.00701354 55.375597 -0.00442123 C57.25710112 -0.00375323 59.13860637 -0.00457597 61.02010918 -0.00690079 C63.64885344 -0.00943554 66.27751212 -0.00557486 68.90625 0 C69.68713486 -0.00202423 70.46801971 -0.00404846 71.27256775 -0.00613403 C74.45546291 0.00639353 76.9753969 0.11525274 80.01782227 1.12939453 C81.16887043 3.43149086 81.28338128 5.00344989 81.39282227 7.56689453 C81.44180664 8.34935547 81.49079102 9.13181641 81.54125977 9.93798828 C81.01782227 12.12939453 81.01782227 12.12939453 78.98608398 13.74209595 C75.27164206 15.47814233 72.01813119 15.55049293 68.00219727 15.51757812 C66.81346008 15.52546356 66.81346008 15.52546356 65.60070801 15.5335083 C62.98954369 15.54667718 60.37899244 15.53798143 57.76782227 15.52783203 C55.94848514 15.52985366 54.12914881 15.53276585 52.30981445 15.53652954 C48.50016552 15.54094867 44.69072786 15.53453508 40.88110352 15.52050781 C36.00184308 15.50341616 31.12307773 15.51325954 26.24383545 15.5312252 C22.48799927 15.54207415 18.73228016 15.5386116 14.97644043 15.53084183 C13.17753033 15.52884289 11.37860954 15.53128833 9.57971191 15.53828049 C7.06400464 15.54591327 4.54909523 15.53426557 2.03344727 15.51757812 C0.92205383 15.52668716 0.92205383 15.52668716 -0.21179199 15.53598022 C-4.61222554 15.48199979 -7.54433747 14.9539976 -10.98217773 12.12939453 C-11.94546668 8.59733505 -12.36468706 6.24749871 -11.16967773 2.75439453 C-8.44088865 -0.9797379 -4.18577613 -0.01082243 0 0 Z " fill="#484748" transform="translate(152.982177734375,223.87060546875)"/>
<path d="M0 0 C4.13739172 5.44506475 4.53028369 9.74842197 4.25 16.4375 C4.23195312 17.26443359 4.21390625 18.09136719 4.1953125 18.94335938 C4.1486214 20.96274933 4.07689393 22.98153445 4 25 C4.66 25 5.32 25 6 25 C6 24.34 6 23.68 6 23 C6.66 23 7.32 23 8 23 C8 22.34 8 21.68 8 21 C8.66 21 9.32 21 10 21 C10 20.34 10 19.68 10 19 C13.13871188 17.43064406 15.53855822 17.64798897 19 18 C21.9375 20.1875 21.9375 20.1875 24 23 C24.3125 25.8125 24.3125 25.8125 24 28 C24.68449219 27.67257812 25.36898437 27.34515625 26.07421875 27.0078125 C29.48912059 25.83151788 32.21031284 25.80222854 35.8125 25.875 C36.97394531 25.89304687 38.13539063 25.91109375 39.33203125 25.9296875 C40.21246094 25.95289063 41.09289062 25.97609375 42 26 C42 26.66 42 27.32 42 28 C42.66 28 43.32 28 44 28 C44 29.98 44 31.96 44 34 C43.34 34 42.68 34 42 34 C42 34.66 42 35.32 42 36 C41.14277344 36.06058594 40.28554687 36.12117188 39.40234375 36.18359375 C38.25894531 36.26738281 37.11554688 36.35117187 35.9375 36.4375 C34.74898438 36.52257812 33.56046875 36.60765625 32.3359375 36.6953125 C29.81718451 36.92536254 27.51795074 37.2680788 25.0625 37.8125 C20.87597127 38.06881809 19.1576036 36.64357511 16 34 C15.34 33.01 14.68 32.02 14 31 C13.54625 31.495 13.0925 31.99 12.625 32.5 C11 34 11 34 9 34 C9 34.66 9 35.32 9 36 C3.95902516 38.44847349 1.1554311 37.71847703 -4 36 C-8.84217285 29.54376954 -7.55628314 20.29895204 -6.5 12.6875 C-6.335 11.800625 -6.17 10.91375 -6 10 C-6.66 10 -7.32 10 -8 10 C-8.66 11.65 -9.32 13.3 -10 15 C-10.66 15 -11.32 15 -12 15 C-12.11786865 15.5662207 -12.2357373 16.13244141 -12.35717773 16.71582031 C-13.06061871 19.21540018 -14.0628548 21.25699381 -15.28515625 23.546875 C-15.73310547 24.39121094 -16.18105469 25.23554688 -16.64257812 26.10546875 C-17.11115234 26.97816406 -17.57972656 27.85085938 -18.0625 28.75 C-18.53494141 29.63816406 -19.00738281 30.52632813 -19.49414062 31.44140625 C-20.65888314 33.62971037 -21.82761712 35.81578248 -23 38 C-24.98 38 -26.96 38 -29 38 C-29 37.34 -29 36.68 -29 36 C-29.66 36 -30.32 36 -31 36 C-31.54130156 29.75042741 -29.92742103 26.01480046 -26.875 20.625 C-26.46628662 19.8812915 -26.05757324 19.13758301 -25.63647461 18.37133789 C-19.03404751 6.49164156 -19.03404751 6.49164156 -16 3 C-15.34 3 -14.68 3 -14 3 C-14 2.34 -14 1.68 -14 1 C-9.66840519 -1.3753907 -4.56613276 -2.03393034 0 0 Z " fill="#4B4B4B" transform="translate(180,319)"/>
<path d="M0 0 C1.3303125 0.00773437 1.3303125 0.00773437 2.6875 0.015625 C3.574375 0.01046875 4.46125 0.0053125 5.375 0 C7.6875 0.265625 7.6875 0.265625 9.6875 2.265625 C9.86296482 5.27871451 9.91877445 8.19872954 9.8828125 11.2109375 C9.8799826 12.0959494 9.87715271 12.9809613 9.87423706 13.89279175 C9.8630224 16.72553912 9.8379157 19.55797284 9.8125 22.390625 C9.80247185 24.30858919 9.79334572 26.22655833 9.78515625 28.14453125 C9.76307889 32.85168376 9.72854045 37.55860116 9.6875 42.265625 C10.74710937 42.25402344 11.80671875 42.24242187 12.8984375 42.23046875 C14.28645658 42.22109024 15.67447755 42.21199011 17.0625 42.203125 C17.76117188 42.19474609 18.45984375 42.18636719 19.1796875 42.17773438 C24.4609375 42.15234375 24.4609375 42.15234375 26.6875 43.265625 C26.6875 46.565625 26.6875 49.865625 26.6875 53.265625 C22.43335377 53.29028122 18.17924502 53.30846399 13.92504883 53.32055664 C12.47679927 53.32559601 11.02855483 53.33242753 9.58032227 53.34106445 C7.50275412 53.35314747 5.42525303 53.35885711 3.34765625 53.36328125 C2.09605713 53.36851807 0.84445801 53.37375488 -0.44506836 53.37915039 C-3.3125 53.265625 -3.3125 53.265625 -4.3125 52.265625 C-4.41617027 50.71111512 -4.45101522 49.15194245 -4.45776367 47.59399414 C-4.46414352 46.59948746 -4.47052338 45.60498077 -4.47709656 44.58033752 C-4.47820938 43.49808395 -4.4793222 42.41583038 -4.48046875 41.30078125 C-4.48379715 40.1971373 -4.48712555 39.09349335 -4.49055481 37.95640564 C-4.49562886 35.61685606 -4.49796299 33.27729922 -4.49780273 30.93774414 C-4.49998848 27.34704734 -4.51813734 23.75665796 -4.53710938 20.16601562 C-4.54004327 17.89843856 -4.54202809 15.63086002 -4.54296875 13.36328125 C-4.55015427 12.28305191 -4.55733978 11.20282257 -4.56474304 10.08985901 C-4.56166641 9.09220016 -4.55858978 8.09454132 -4.55541992 7.06665039 C-4.55684494 6.18586319 -4.55826996 5.30507599 -4.55973816 4.39759827 C-4.19291459 1.23442129 -3.12379996 0.35881486 0 0 Z " fill="#4C4C4C" transform="translate(287.3125,114.734375)"/>
<path d="M0 0 C3 0 3 0 6 1 C5.34346509 5.12385988 3.14951193 8.38142544 1 11.875 C0.40529907 12.8506189 0.40529907 12.8506189 -0.20141602 13.84594727 C-1.46027808 15.90191513 -2.72912815 17.95143767 -4 20 C-4.42007324 20.6820752 -4.84014648 21.36415039 -5.27294922 22.06689453 C-6.48533546 24.02964829 -7.70893066 25.98484387 -8.9375 27.9375 C-9.31455078 28.5464209 -9.69160156 29.1553418 -10.08007812 29.78271484 C-10.99914998 31.22451928 -11.99293875 32.61821828 -13 34 C-13.66 34 -14.32 34 -15 34 C-15.2165625 34.928125 -15.2165625 34.928125 -15.4375 35.875 C-16 38 -16 38 -17 40 C-17.66 40 -18.32 40 -19 40 C-19.10441406 40.56203125 -19.20882813 41.1240625 -19.31640625 41.703125 C-20.12613235 44.42380471 -21.36203338 46.39257807 -22.9375 48.75 C-23.46214844 49.54921875 -23.98679687 50.3484375 -24.52734375 51.171875 C-25.01332031 51.77515625 -25.49929688 52.3784375 -26 53 C-26.66 53 -27.32 53 -28 53 C-28.2475 53.70125 -28.495 54.4025 -28.75 55.125 C-30.74367542 59.71045347 -32.80988036 63.20658691 -37 66 C-39.73178163 65.79511638 -41.52728333 65.28363 -43.875 63.875 C-45.71081192 60.81531347 -44.77862197 58.35406389 -44 55 C-43.34 54.01 -42.68 53.02 -42 52 C-41.34 52 -40.68 52 -40 52 C-39.71125 51.236875 -39.4225 50.47375 -39.125 49.6875 C-38 47 -38 47 -36 44 C-35.34 44 -34.68 44 -34 44 C-33.75507813 43.30003906 -33.51015625 42.60007813 -33.2578125 41.87890625 C-31.80941589 38.56378729 -29.97186191 35.88552711 -27.875 32.9375 C-27.06951027 31.7935332 -26.2648419 30.64898768 -25.4609375 29.50390625 C-24.84943848 28.63596436 -24.84943848 28.63596436 -24.22558594 27.75048828 C-22.28540856 24.97935844 -20.38905973 22.18131075 -18.5 19.375 C-17.8503125 18.41335937 -17.200625 17.45171875 -16.53125 16.4609375 C-14.87432153 14.01079109 -14.87432153 14.01079109 -14 11 C-13.34 11 -12.68 11 -12 11 C-11.731875 10.071875 -11.46375 9.14375 -11.1875 8.1875 C-10.08851629 5.23759634 -9.37581439 3.94384814 -7 2 C-7 2.66 -7 3.32 -7 4 C-5.02 3.67 -3.04 3.34 -1 3 C-0.67 2.01 -0.34 1.02 0 0 Z " fill="#4D4D4D" transform="translate(409,179)"/>
<path d="M0 0 C1.37478516 0.01740234 1.37478516 0.01740234 2.77734375 0.03515625 C3.69644531 0.04417969 4.61554688 0.05320312 5.5625 0.0625 C6.27277344 0.07410156 6.98304688 0.08570312 7.71484375 0.09765625 C9.42509897 5.32743668 10.04205352 9.95279182 10.12890625 15.4375 C10.1482724 16.20445694 10.16763855 16.97141388 10.18759155 17.76161194 C10.24686933 20.18601731 10.29356286 22.61047153 10.33984375 25.03515625 C10.37807137 26.68947263 10.41712581 28.34377012 10.45703125 29.99804688 C10.55252738 34.03109469 10.63674682 38.06423552 10.71484375 42.09765625 C11.77445312 42.08605469 12.8340625 42.07445312 13.92578125 42.0625 C15.31380033 42.05312149 16.7018213 42.04402136 18.08984375 42.03515625 C18.78851563 42.02677734 19.4871875 42.01839844 20.20703125 42.00976562 C25.48828125 41.984375 25.48828125 41.984375 27.71484375 43.09765625 C27.71484375 46.39765625 27.71484375 49.69765625 27.71484375 53.09765625 C17.48484375 53.09765625 7.25484375 53.09765625 -3.28515625 53.09765625 C-3.30805874 45.7103295 -3.32798782 38.32312493 -3.34008789 30.93579102 C-3.34512988 28.4204873 -3.35196328 25.90518653 -3.3605957 23.38989258 C-3.37266719 19.7833585 -3.37838574 16.17686302 -3.3828125 12.5703125 C-3.38797379 11.43803726 -3.39313507 10.30576202 -3.39845276 9.13917542 C-3.39852829 8.09817184 -3.39860382 7.05716827 -3.39868164 5.98461914 C-3.40090225 5.06306534 -3.40312286 4.14151154 -3.40541077 3.19203186 C-3.23563577 0.23519811 -2.96457695 0.12669132 0 0 Z " fill="#464646" transform="translate(249.28515625,114.90234375)"/>
<path d="M0 0 C3.16115776 1.36983503 3.9927092 1.9890638 6 5 C6.1953125 7.48046875 6.1953125 7.48046875 6.125 10.1875 C6.10695313 11.08855469 6.08890625 11.98960937 6.0703125 12.91796875 C6.04710937 13.60503906 6.02390625 14.29210937 6 15 C8.89432759 14.43072232 9.79531785 14.23291417 11.8125 11.9375 C14 10 14 10 17.4375 9.4375 C21 10 21 10 23.9375 12.0625 C26 15 26 15 26.625 18.5 C25.83397068 22.9297642 24.63525215 24.39210172 21 27 C17.08363212 27.55948113 14.31064521 27.20709681 11 25 C10.505 24.01 10.505 24.01 10 23 C7.97536745 22.34786708 7.97536745 22.34786708 6 22 C6.05800781 22.66386719 6.11601562 23.32773437 6.17578125 24.01171875 C6.40275892 28.453996 6.45756302 31.21109823 4.1875 35.125 C-0.47122337 37.86542551 -4.72221768 37.41593731 -10 37 C-10 38.32 -10 39.64 -10 41 C-9.01 41.33 -8.02 41.66 -7 42 C-4.49968346 45.75047482 -4.46396446 47.55856266 -5 52 C-7.59216083 55.69186542 -9.04149064 56.82883761 -13.5 57.625 C-17.95850936 56.82883761 -19.40783917 55.69186542 -22 52 C-22.54218777 48.13691213 -22.55058839 45.97604306 -20.625 42.5625 C-19 41 -19 41 -17 41 C-17 41.99 -17 42.98 -17 44 C-15.02 44.66 -13.04 45.32 -11 46 C-10.67 45.34 -10.34 44.68 -10 44 C-10.66 44 -11.32 44 -12 44 C-12 41.69 -12 39.38 -12 37 C-13.65 36.67 -15.3 36.34 -17 36 C-17 34.68 -17 33.36 -17 32 C-12.11760113 30.16910042 -8.41917439 29.6773968 -3 29 C-3 22.07 -3 15.14 -3 8 C-9.93 7.67 -16.86 7.34 -24 7 C-24 6.67 -24 6.34 -24 6 C-23.31373535 5.98018066 -22.6274707 5.96036133 -21.92041016 5.93994141 C-18.82154221 5.84489055 -15.72336706 5.73513153 -12.625 5.625 C-11.54476563 5.5940625 -10.46453125 5.563125 -9.3515625 5.53125 C-8.3203125 5.49257813 -7.2890625 5.45390625 -6.2265625 5.4140625 C-5.27346191 5.3826416 -4.32036133 5.3512207 -3.33837891 5.31884766 C-0.81104824 5.21444204 -0.81104824 5.21444204 1 3 C0.67 2.01 0.34 1.02 0 0 Z M17 17 C17.33 17.99 17.66 18.98 18 20 C18.33 19.01 18.66 18.02 19 17 C18.34 17 17.68 17 17 17 Z M-15 47 C-15 47.66 -15 48.32 -15 49 C-14.01 48.67 -13.02 48.34 -12 48 C-12.99 47.67 -13.98 47.34 -15 47 Z " fill="#4C4C4C" transform="translate(364,330)"/>
<path d="M0 0 C1.51400391 0.01740234 1.51400391 0.01740234 3.05859375 0.03515625 C4.07050781 0.04417969 5.08242187 0.05320312 6.125 0.0625 C7.29869141 0.07990234 7.29869141 0.07990234 8.49609375 0.09765625 C9.72330799 2.55208473 9.62300983 4.15483139 9.62548828 6.89868164 C9.62864044 7.89634048 9.6317926 8.89399933 9.63504028 9.92189026 C9.63301605 11.0021196 9.63099182 12.08234894 9.62890625 13.1953125 C9.62986298 14.29991318 9.6308197 15.40451385 9.63180542 16.54258728 C9.63248676 18.8803615 9.63063571 21.21813761 9.62646484 23.5559082 C9.62111091 27.14864313 9.62641405 30.74125333 9.6328125 34.33398438 C9.63215181 36.60026069 9.63087084 38.86653694 9.62890625 41.1328125 C9.63093048 42.21506607 9.63295471 43.29731964 9.63504028 44.41236877 C9.63188812 45.40687546 9.62873596 46.40138214 9.62548828 47.42602539 C9.62429489 48.7460128 9.62429489 48.7460128 9.62307739 50.09266663 C9.49609375 52.09765625 9.49609375 52.09765625 8.49609375 53.09765625 C6.66493492 53.19616796 4.82989442 53.22738254 2.99609375 53.22265625 C1.99578125 53.22523438 0.99546875 53.2278125 -0.03515625 53.23046875 C-2.50390625 53.09765625 -2.50390625 53.09765625 -3.50390625 52.09765625 C-3.60245047 50.50702315 -3.63189319 48.91204148 -3.63330078 47.31835938 C-3.63645294 46.30060425 -3.6396051 45.28284912 -3.64285278 44.23425293 C-3.64082855 43.12698853 -3.63880432 42.01972412 -3.63671875 40.87890625 C-3.63767548 39.75069458 -3.6386322 38.62248291 -3.63961792 37.46008301 C-3.64029993 35.06925399 -3.63844422 32.67842314 -3.63427734 30.28759766 C-3.62892941 26.61356474 -3.63422168 22.93965408 -3.640625 19.265625 C-3.63996422 16.94921848 -3.63868307 14.63281203 -3.63671875 12.31640625 C-3.6397551 10.65550964 -3.6397551 10.65550964 -3.64285278 8.96105957 C-3.63970062 7.94330444 -3.63654846 6.92554932 -3.63330078 5.87695312 C-3.63250519 4.97618042 -3.63170959 4.07540771 -3.63088989 3.14733887 C-3.4417233 0.09394184 -3.07500502 0.11992999 0 0 Z " fill="#454445" transform="translate(226.50390625,114.90234375)"/>
<path d="M0 0 C0.33 0.99 0.66 1.98 1 3 C-64.67 3 -130.34 3 -198 3 C-198 2.34 -198 1.68 -198 1 C-172.92227922 0.86945874 -147.84455768 0.73906536 -122.76683521 0.60884857 C-111.12312089 0.5483848 -99.47940683 0.48787242 -87.83569336 0.42724609 C-77.68839702 0.37441141 -67.54110021 0.32166745 -57.39380282 0.26903296 C-52.01968933 0.241154 -46.64557608 0.21322926 -41.27146339 0.18519592 C-36.21464851 0.15881916 -31.157833 0.13256357 -26.101017 0.10640144 C-24.24383839 0.09677162 -22.38666001 0.0870973 -20.52948189 0.07737541 C-17.99575485 0.06411858 -15.46202703 0.05102121 -12.92829895 0.03796387 C-11.82371573 0.03212744 -11.82371573 0.03212744 -10.6968177 0.02617311 C-7.13117097 0.00796784 -3.56569433 -0.00422078 0 0 Z " fill="#7A7A7A" transform="translate(315,406)"/>
<path d="M0 0 C0.99 0 1.98 0 3 0 C3 0.99 3 1.98 3 3 C3.66 3 4.32 3 5 3 C4.35952602 6.44748958 3.00294981 8.84644185 1.0625 11.75 C0.53785156 12.54921875 0.01320312 13.3484375 -0.52734375 14.171875 C-1.01332031 14.77515625 -1.49929687 15.3784375 -2 16 C-2.66 16 -3.32 16 -4 16 C-4 17.65 -4 19.3 -4 21 C-3.34 21 -2.68 21 -2 21 C-1.76539063 20.45859375 -1.53078125 19.9171875 -1.2890625 19.359375 C0.3583644 16.34408456 2.42653344 13.88815988 4.625 11.25 C5.44226563 10.26515625 6.25953125 9.2803125 7.1015625 8.265625 C7.72804687 7.51796875 8.35453125 6.7703125 9 6 C9.33 6.99 9.66 7.98 10 9 C9.67 9.66 9.34 10.32 9 11 C11.96175123 10.38722388 13.38058783 9.74627478 16 8 C18.00720923 8.28674418 20.0085944 8.61866701 22 9 C22.66 8.67 23.32 8.34 24 8 C24 8.99 24 9.98 24 11 C23.07058594 11.51949219 22.14117187 12.03898437 21.18359375 12.57421875 C13.28620194 16.95205718 13.28620194 16.95205718 5.8125 22 C3 24 3 24 0 24 C0 24.66 0 25.32 0 26 C-2.4404341 27.53656962 -3.70744102 28.02089707 -6.625 27.8125 C-9 27 -9 27 -11 24 C-10.71396483 16.4200679 -8.17885592 9.21556008 -6 2 C-4 2 -2 2 0 2 C0 1.34 0 0.68 0 0 Z " fill="#545454" transform="translate(243,331)"/>
<path d="M0 0 C0 10.89 0 21.78 0 33 C-4.95 33 -9.9 33 -15 33 C-17.0832018 18.56638754 -17.0832018 18.56638754 -13.64208984 12.67529297 C-3.75552932 0 -3.75552932 0 0 0 Z " fill="#414141" transform="translate(357,246)"/>
<path d="M0 0 C1.90458984 0.25136719 1.90458984 0.25136719 3.84765625 0.5078125 C9.95938863 1.19021945 16.01805998 0.98807997 22.15429688 0.78515625 C23.00958984 0.77097656 23.86488281 0.75679688 24.74609375 0.7421875 C25.51622803 0.7201123 26.2863623 0.69803711 27.07983398 0.67529297 C27.71348877 0.78244629 28.34714355 0.88959961 29 1 C29.66 1.99 30.32 2.98 31 4 C30.01 5.65 29.02 7.3 28 9 C28.66 9.66 29.32 10.32 30 11 C25.1773378 13.5010087 20.54783709 13.33209259 15.25 13.3125 C14.3940625 13.32861328 13.538125 13.34472656 12.65625 13.36132812 C6.59614049 13.36591912 1.61793315 12.25382473 -4 10 C-4 5.73138235 -2.34474443 3.51711665 0 0 Z " fill="#434343" transform="translate(335,395)"/>
<path d="M0 0 C10.7421875 -0.1953125 10.7421875 -0.1953125 14 0 C16 2 16 2 16.265625 4.53125 C16.26046875 5.5109375 16.2553125 6.490625 16.25 7.5 C16.25515625 8.4796875 16.2603125 9.459375 16.265625 10.46875 C16 13 16 13 14 15 C11.25 15.23046875 11.25 15.23046875 8 15.1875 C6.9275 15.18105469 5.855 15.17460937 4.75 15.16796875 C2 15 2 15 0 14 C0 9.38 0 4.76 0 0 Z " fill="#484848" transform="translate(343,341)"/>
<path d="M0 0 C0.33 0 0.66 0 1 0 C1.33 1.98 1.66 3.96 2 6 C2.86625 5.443125 2.86625 5.443125 3.75 4.875 C6 4 6 4 8.25 4.875 C8.8275 5.24625 9.405 5.6175 10 6 C10 6.99 10 7.98 10 9 C9.34 9 8.68 9 8 9 C7.7525 9.70125 7.505 10.4025 7.25 11.125 C5.25632458 15.71045347 3.19011964 19.20658691 -1 22 C-3.73178163 21.79511638 -5.52728333 21.28363 -7.875 19.875 C-9.71081192 16.81531347 -8.77862197 14.35406389 -8 11 C-7.34 10.01 -6.68 9.02 -6 8 C-5.34 8 -4.68 8 -4 8 C-3.566875 6.8553125 -3.566875 6.8553125 -3.125 5.6875 C-2 3 -2 3 0 0 Z " fill="#525252" transform="translate(373,223)"/>
<path d="M0 0 C2.9375 2.3125 2.9375 2.3125 5 5 C5 8 5 8 3 11 C4.98 11 6.96 11 9 11 C8.1646875 11.37125 8.1646875 11.37125 7.3125 11.75 C4.85925059 12.96043396 4.85925059 12.96043396 2.625 15.125 C-0.56115125 17.40082232 -2.16329516 17.50043976 -6 17 C-6.99 16.34 -7.98 15.68 -9 15 C-9 14.34 -9 13.68 -9 13 C-9.66 13 -10.32 13 -11 13 C-11.6147541 5.00819672 -11.6147541 5.00819672 -9.4375 1.4375 C-6.00082919 -0.58925458 -3.92582814 -0.6198676 0 0 Z M-4 7 C-3.67 7.99 -3.34 8.98 -3 10 C-2.67 9.01 -2.34 8.02 -2 7 C-2.66 7 -3.32 7 -4 7 Z " fill="#515151" transform="translate(322,340)"/>
<path d="M0 0 C0.103125 0.639375 0.20625 1.27875 0.3125 1.9375 C0.6528125 2.9584375 0.6528125 2.9584375 1 4 C1.99 4.33 2.98 4.66 4 5 C6.50031654 8.75047482 6.53603554 10.55856266 6 15 C3.40783917 18.69186542 1.95850936 19.82883761 -2.5 20.625 C-6.95850936 19.82883761 -8.40783917 18.69186542 -11 15 C-11.54218777 11.13691213 -11.55058839 8.97604306 -9.625 5.5625 C-8 4 -8 4 -6 4 C-6 4.99 -6 5.98 -6 7 C-4.02 7.66 -2.04 8.32 0 9 C0.33 8.34 0.66 7.68 1 7 C0.34 7 -0.32 7 -1 7 C-0.67 4.69 -0.34 2.38 0 0 Z M-4 10 C-4 10.66 -4 11.32 -4 12 C-3.01 11.67 -2.02 11.34 -1 11 C-1.99 10.67 -2.98 10.34 -4 10 Z " fill="#545454" transform="translate(353,367)"/>
<path d="M0 0 C1.5625 1.875 1.5625 1.875 2 4 C1.67 4.99 1.34 5.98 1 7 C-2.0625 8.1875 -2.0625 8.1875 -5 9 C-5.33 8.67 -5.66 8.34 -6 8 C-7.9078584 11.1749094 -8.1609041 13.10585211 -7.625 16.75 C-7.45871094 17.94882812 -7.45871094 17.94882812 -7.2890625 19.171875 C-7.19367188 19.77515625 -7.09828125 20.3784375 -7 21 C-7.66 20.67 -8.32 20.34 -9 20 C-10.53668865 19.77532169 -12.07968054 19.59203195 -13.625 19.4375 C-14.44226563 19.35371094 -15.25953125 19.26992188 -16.1015625 19.18359375 C-17.04128906 19.09271484 -17.04128906 19.09271484 -18 19 C-18 18.67 -18 18.34 -18 18 C-15.03 18 -12.06 18 -9 18 C-10.01620005 14.95139986 -10.77391571 14.13333078 -13 12 C-14.36952673 9.26094655 -14.12621361 7.02912668 -14 4 C-13.67 3.34 -13.34 2.68 -13 2 C-12.34 2 -11.68 2 -11 2 C-11 1.34 -11 0.68 -11 0 C-7.11759585 -1.29413472 -3.93217101 -1.11016035 0 0 Z " fill="#505050" transform="translate(356,311)"/>
<path d="M0 0 C3.63 0 7.26 0 11 0 C14 7.625 14 7.625 14 11 C10.32589215 12.17571451 6.83070817 12.07366746 3 12 C3 13.65 3 15.3 3 17 C2.67 17 2.34 17 2 17 C1.46585888 15.10787298 0.94821671 13.21108364 0.4375 11.3125 C0.14746094 10.25675781 -0.14257812 9.20101562 -0.44140625 8.11328125 C-1 5 -1 5 0 0 Z " fill="#4B4B4B" transform="translate(143,115)"/>
<path d="M0 0 C0.99 0 1.98 0 3 0 C3 0.99 3 1.98 3 3 C3.66 3 4.32 3 5 3 C4.35329602 6.3971438 3.05741903 8.852809 1.1875 11.75 C0.68605469 12.54921875 0.18460938 13.3484375 -0.33203125 14.171875 C-0.88246094 14.77515625 -1.43289062 15.3784375 -2 16 C-3.32 16 -4.64 16 -6 16 C-6.33 16.66 -6.66 17.32 -7 18 C-8.79570284 15.33874255 -9.03345719 14.21888938 -8.5390625 10.984375 C-8.23742187 9.91703125 -7.93578125 8.8496875 -7.625 7.75 C-7.32851562 6.67234375 -7.03203125 5.5946875 -6.7265625 4.484375 C-6.48679688 3.66453125 -6.24703125 2.8446875 -6 2 C-4 2 -2 2 0 2 C0 1.34 0 0.68 0 0 Z " fill="#4E4E4E" transform="translate(243,331)"/>
<path d="M0 0 C2.64 0 5.28 0 8 0 C8.48315912 7.36817654 8.48315912 7.36817654 6.375 10.125 C3.06135572 11.34581631 1.24415654 10.17341832 -2 9 C-2.99 9.66 -3.98 10.32 -5 11 C-5.66 10.34 -6.32 9.68 -7 9 C-6.67 8.01 -6.34 7.02 -6 6 C-5.34 6 -4.68 6 -4 6 C-4 5.34 -4 4.68 -4 4 C-3.34 4 -2.68 4 -2 4 C-2 3.34 -2 2.68 -2 2 C-1.34 2 -0.68 2 0 2 C0 1.34 0 0.68 0 0 Z " fill="#444444" transform="translate(190,338)"/>
<path d="M0 0 C2 0 4 0 6 0 C6 1.65 6 3.3 6 5 C6.66 5 7.32 5 8 5 C8.66 3.68 9.32 2.36 10 1 C10.103125 1.61875 10.20625 2.2375 10.3125 2.875 C10.87525373 5.36526484 10.87525373 5.36526484 14 7 C12.68 7.33 11.36 7.66 10 8 C10 8.66 10 9.32 10 10 C7.5595659 11.53656962 6.29255898 12.02089707 3.375 11.8125 C1 11 1 11 -1 8 C-0.96856707 5.26009592 -0.44521663 2.71582146 0 0 Z " fill="#585858" transform="translate(233,347)"/>
<path d="M0 0 C0.66 0.66 1.32 1.32 2 2 C2.66 1.34 3.32 0.68 4 0 C5.66666667 1.66666667 7.33333333 3.33333333 9 5 C8 8 8 8 5 10 C1.12611618 10.32969224 -1.76389143 10.27726159 -5 8 C-5.33 7.01 -5.66 6.02 -6 5 C-5.34 5 -4.68 5 -4 5 C-3.67 4.34 -3.34 3.68 -3 3 C-2.01 3 -1.02 3 0 3 C0 2.01 0 1.02 0 0 Z " fill="#565656" transform="translate(380,347)"/>
<path d="M0 0 C1.32 0 2.64 0 4 0 C4.66 1.32 5.32 2.64 6 4 C6.66 3.67 7.32 3.34 8 3 C9.25541557 6.76624671 8.37061958 8.37188934 7 12 C6.0925 11.62875 5.185 11.2575 4.25 10.875 C1.11902985 9.69640701 1.11902985 9.69640701 -1.375 10.875 C-1.91125 11.24625 -2.4475 11.6175 -3 12 C-3.28855285 7.0946016 -3.26204794 3.8445565 0 0 Z M5 5 C6 7 6 7 6 7 Z " fill="#454545" transform="translate(377,218)"/>
<path d="M0 0 C2.9719385 1.12451727 5.33440687 2.22293791 8 4 C8 4.66 8 5.32 8 6 C8.66 6 9.32 6 10 6 C9.67 6.66 9.34 7.32 9 8 C7.68 7.67 6.36 7.34 5 7 C4.8453125 7.9590625 4.8453125 7.9590625 4.6875 8.9375 C4.460625 9.618125 4.23375 10.29875 4 11 C3.01 11.33 2.02 11.66 1 12 C0.34 12.66 -0.32 13.32 -1 14 C-1.99 13.34 -2.98 12.68 -4 12 C-3.6875 9.625 -3.6875 9.625 -3 7 C-2.01 6.34 -1.02 5.68 0 5 C0.25030977 2.41619823 0.25030977 2.41619823 0 0 Z " fill="#545454" transform="translate(380,296)"/>
<path d="M0 0 C0.33 0 0.66 0 1 0 C1 10.89 1 21.78 1 33 C-3.95 33 -8.9 33 -14 33 C-14 27.06 -14 21.12 -14 15 C-13.67 15 -13.34 15 -13 15 C-13 20.61 -13 26.22 -13 32 C-8.71 32 -4.42 32 0 32 C-0.33 23.09 -0.66 14.18 -1 5 C-2.32 5.33 -3.64 5.66 -5 6 C-3.35830472 3.97945196 -1.69088222 1.97956942 0 0 Z " fill="#696969" transform="translate(356,246)"/>
<path d="M0 0 C1.22589844 0.01353516 1.22589844 0.01353516 2.4765625 0.02734375 C3.41628906 0.04474609 3.41628906 0.04474609 4.375 0.0625 C5.72939668 2.77129335 5.44001451 5.07183268 5.375 8.0625 C1.04331683 8.32502625 -2.5053623 7.35493536 -6.625 6.0625 C-6.625 4.4125 -6.625 2.7625 -6.625 1.0625 C-4.21954362 -0.14022819 -2.67503047 -0.03821472 0 0 Z " fill="#404040" transform="translate(152.625,125.9375)"/>
<path d="M0 0 C3.16115776 1.36983503 3.9927092 1.9890638 6 5 C6.1953125 7.48046875 6.1953125 7.48046875 6.125 10.1875 C6.10695313 11.08855469 6.08890625 11.98960937 6.0703125 12.91796875 C6.04710937 13.60503906 6.02390625 14.29210937 6 15 C5.67 15 5.34 15 5 15 C4.67 13.02 4.34 11.04 4 9 C-1.97127181 8.01445028 -7.89491458 7.68944649 -13.9375 7.4375 C-14.90751953 7.39431641 -15.87753906 7.35113281 -16.87695312 7.30664062 C-19.25118601 7.20137907 -21.62550921 7.09924293 -24 7 C-24 6.67 -24 6.34 -24 6 C-23.31373535 5.98018066 -22.6274707 5.96036133 -21.92041016 5.93994141 C-18.82154221 5.84489055 -15.72336706 5.73513153 -12.625 5.625 C-11.54476563 5.5940625 -10.46453125 5.563125 -9.3515625 5.53125 C-8.3203125 5.49257813 -7.2890625 5.45390625 -6.2265625 5.4140625 C-5.27346191 5.3826416 -4.32036133 5.3512207 -3.33837891 5.31884766 C-0.81104824 5.21444204 -0.81104824 5.21444204 1 3 C0.67 2.01 0.34 1.02 0 0 Z " fill="#5F5F5F" transform="translate(364,330)"/>
<path d="M0 0 C2.2876892 3.43153381 2.2832914 4.86205113 2.37890625 8.91015625 C2.41306641 10.06451172 2.44722656 11.21886719 2.48242188 12.40820312 C2.50884766 13.61412109 2.53527344 14.82003906 2.5625 16.0625 C2.62226595 18.44932323 2.68587009 20.83605444 2.75390625 23.22265625 C2.77783447 24.28234619 2.8017627 25.34203613 2.82641602 26.43383789 C2.83344422 28.98841325 2.83344422 28.98841325 4 31 C2.68 31 1.36 31 0 31 C0 20.77 0 10.54 0 0 Z " fill="#4E4E4E" transform="translate(257,128)"/>
<path d="M0 0 C3.68754757 0.49831724 5.60490662 1.10067643 8 4 C6.625 5.5 6.625 5.5 5 7 C4.34 7 3.68 7 3 7 C3 7.66 3 8.32 3 9 C0.09399739 10.25664978 -1.79604584 11 -5 11 C-4.67 10.01 -4.34 9.02 -4 8 C-3.01 8 -2.02 8 -1 8 C-0.67 5.36 -0.34 2.72 0 0 Z " fill="#555555" transform="translate(186,346)"/>
<path d="M0 0 C1.98 0 3.96 0 6 0 C5.67 2.64 5.34 5.28 5 8 C5.99 7.67 6.98 7.34 8 7 C7.34 8.32 6.68 9.64 6 11 C0.25 9.25 0.25 9.25 -2 7 C-1.34 7 -0.68 7 0 7 C0 4.69 0 2.38 0 0 Z " fill="#3D3D3D" transform="translate(347,366)"/>
<path d="M0 0 C1.5625 1.875 1.5625 1.875 2 4 C1.67 4.99 1.34 5.98 1 7 C-2.0625 8.1875 -2.0625 8.1875 -5 9 C-4.773125 8.401875 -4.54625 7.80375 -4.3125 7.1875 C-4.209375 6.465625 -4.10625 5.74375 -4 5 C-5.35444301 3.22809091 -5.35444301 3.22809091 -7 2 C-7.99 2.495 -7.99 2.495 -9 3 C-9 2.34 -9 1.68 -9 1 C-9.66 0.67 -10.32 0.34 -11 0 C-7.11759585 -1.29413472 -3.93217101 -1.11016035 0 0 Z " fill="#595959" transform="translate(356,311)"/>
<path d="M0 0 C3.3 0 6.6 0 10 0 C10.66 1.32 11.32 2.64 12 4 C8.79619983 6.13586678 7.98060033 6.23132175 4.3125 6.125 C3.10013672 6.09792969 3.10013672 6.09792969 1.86328125 6.0703125 C0.94095703 6.03550781 0.94095703 6.03550781 0 6 C0.66 4.68 1.32 3.36 2 2 C1.34 1.34 0.68 0.68 0 0 Z " fill="#363636" transform="translate(354,330)"/>
<path d="M0 0 C0.33 0.66 0.66 1.32 1 2 C1.99 2 2.98 2 4 2 C4.33 2.99 4.66 3.98 5 5 C7.00016466 6.20882096 7.00016466 6.20882096 9 7 C8.01 8.485 8.01 8.485 7 10 C3.875 10.1875 3.875 10.1875 1 10 C1 9.34 1 8.68 1 8 C0.34 8 -0.32 8 -1 8 C-1.04241723 5.66705225 -1.04092937 3.33297433 -1 1 C-0.67 0.67 -0.34 0.34 0 0 Z " fill="#585858" transform="translate(150,347)"/>
<path d="M0 0 C0.33 0 0.66 0 1 0 C1 2.97 1 5.94 1 9 C0.67 8.01 0.34 7.02 0 6 C-0.99 6 -1.98 6 -3 6 C-3.33 11.28 -3.66 16.56 -4 22 C-4.33 22 -4.66 22 -5 22 C-5.33 15.07 -5.66 8.14 -6 1 C-2 2 -2 2 0 3 C0 2.01 0 1.02 0 0 Z " fill="#292929" transform="translate(368,336)"/>
<path d="M0 0 C1.11353866 3.74626219 0.80746732 5.47543872 -1 9 C-2.6193034 10.8891873 -3.77399963 11.88699982 -6 13 C-6.33 13.99 -6.66 14.98 -7 16 C-7.66 16 -8.32 16 -9 16 C-9 16.66 -9 17.32 -9 18 C-9.66 17.67 -10.32 17.34 -11 17 C-7.56704016 11.13683491 -4.03949132 5.46519414 0 0 Z " fill="#616161" transform="translate(272,274)"/>
<path d="M0 0 C0 3.92823101 -1.51754449 5.06618894 -4 8 C-4.33 8.66 -4.66 9.32 -5 10 C-7.5625 10.625 -7.5625 10.625 -10 11 C-6.375 4.125 -6.375 4.125 -3 3 C-3 2.34 -3 1.68 -3 1 C-2.01 0.67 -1.02 0.34 0 0 Z " fill="#5B5B5B" transform="translate(312,303)"/>
<path d="M0 0 C0.34615998 5.65394631 -0.56574762 9.03006806 -3 14 C-3.66 14 -4.32 14 -5 14 C-4.67 13.01 -4.34 12.02 -4 11 C-4.20625 10.34 -4.4125 9.68 -4.625 9 C-4.74875 8.34 -4.8725 7.68 -5 7 C-3.5625 5.25 -3.5625 5.25 -2 4 C-2.66 3.67 -3.32 3.34 -4 3 C-1.125 0 -1.125 0 0 0 Z " fill="#575757" transform="translate(205,154)"/>
<path d="M0 0 C1.65 0 3.3 0 5 0 C5.33 0.99 5.66 1.98 6 3 C6.99 3 7.98 3 9 3 C9 3.66 9 4.32 9 5 C8.34 5 7.68 5 7 5 C7 5.66 7 6.32 7 7 C4.03 6.505 4.03 6.505 1 6 C1.33 5.34 1.66 4.68 2 4 C1.10836423 1.88316159 1.10836423 1.88316159 0 0 Z " fill="#373536" transform="translate(369,345)"/>
<path d="M0 0 C0.99 0.33 1.98 0.66 3 1 C-0.31909349 5.39291786 -2.79887886 7.8227865 -8 10 C-8.66 9.34 -9.32 8.68 -10 8 C-8.824375 7.87625 -8.824375 7.87625 -7.625 7.75 C-4.88368661 7.29004732 -4.88368661 7.29004732 -3.875 5.125 C-3.58625 4.42375 -3.2975 3.7225 -3 3 C-1.375 1.25 -1.375 1.25 0 0 Z " fill="#5F5F5F" transform="translate(376,131)"/>
<path d="M0 0 C2.31 0 4.62 0 7 0 C5.515 1.98 5.515 1.98 4 4 C4.99 4.66 5.98 5.32 7 6 C4.69 6.33 2.38 6.66 0 7 C0 4.66666667 0 2.33333333 0 0 Z " fill="#333333" transform="translate(325,345)"/>
<path d="M0 0 C1.65 0 3.3 0 5 0 C4.67 1.32 4.34 2.64 4 4 C5.98 4 7.96 4 10 4 C10 4.33 10 4.66 10 5 C6.37 5 2.74 5 -1 5 C-0.67 3.35 -0.34 1.7 0 0 Z " fill="#3A3A3A" transform="translate(343,331)"/>
<path d="M0 0 C0.66 0 1.32 0 2 0 C0.06382979 6.70212766 0.06382979 6.70212766 -3 9 C-3.66 9 -4.32 9 -5 9 C-5.66 10.32 -6.32 11.64 -7 13 C-7 9.19794574 -5.7999031 7.88843439 -3.625 4.8125 C-2.99851562 3.91144531 -2.37203125 3.01039063 -1.7265625 2.08203125 C-1.15679687 1.39496094 -0.58703125 0.70789063 0 0 Z " fill="#6D6D6D" transform="translate(345,164)"/>
<path d="M0 0 C1.32 0.33 2.64 0.66 4 1 C3.67 2.32 3.34 3.64 3 5 C2.34 5 1.68 5 1 5 C0.67 5.99 0.34 6.98 0 8 C-0.99 7.01 -1.98 6.02 -3 5 C-2.67 4.01 -2.34 3.02 -2 2 C-1.34 2 -0.68 2 0 2 C0 1.34 0 0.68 0 0 Z " fill="#494949" transform="translate(309,281)"/>
<path d="M0 0 C2 1.5625 2 1.5625 4 4 C4.25 7.75 4.25 7.75 4 11 C2.5393715 8.35261084 2 7.10551666 2 4 C0.35 4.33 -1.3 4.66 -3 5 C-3.33 4.01 -3.66 3.02 -4 2 C-2.68 1.34 -1.36 0.68 0 0 Z " fill="#5A5A5A" transform="translate(386,341)"/>
<path d="M0 0 C0.66 0 1.32 0 2 0 C3.26237731 2.52475462 3.09856404 4.31200466 3.0625 7.125 C3.05347656 8.03507812 3.04445313 8.94515625 3.03515625 9.8828125 C3.02355469 10.58148438 3.01195312 11.28015625 3 12 C2.67 12 2.34 12 2 12 C1.9175 11.05125 1.835 10.1025 1.75 9.125 C1.34925077 5.89538209 1.34925077 5.89538209 -1.0625 4.625 C-1.701875 4.41875 -2.34125 4.2125 -3 4 C-1.625 2 -1.625 2 0 0 Z " fill="#757575" transform="translate(367,333)"/>
<path d="M0 0 C1.32 0.33 2.64 0.66 4 1 C4 2.98 4 4.96 4 7 C3.01 7 2.02 7 1 7 C-0.68798827 8.43750191 -0.68798827 8.43750191 -2 10 C-2.33 9.01 -2.66 8.02 -3 7 C-2.34 6.67 -1.68 6.34 -1 6 C-0.34227572 2.97065509 -0.34227572 2.97065509 0 0 Z " fill="#3B3B3B" transform="translate(377,296)"/>
<path d="M0 0 C1.98 0 3.96 0 6 0 C6 1.65 6 3.3 6 5 C4.02 5.33 2.04 5.66 0 6 C0 4.02 0 2.04 0 0 Z " fill="#313131" transform="translate(347,366)"/>
<path d="M0 0 C1.98 0 3.96 0 6 0 C5.01 0.495 5.01 0.495 4 1 C4.33 2.32 4.66 3.64 5 5 C2.69 4.67 0.38 4.34 -2 4 C-1.34 2.68 -0.68 1.36 0 0 Z " fill="#414141" transform="translate(244,348)"/>
<path d="M0 0 C0.33 0 0.66 0 1 0 C1 1.65 1 3.3 1 5 C0.34 5 -0.32 5 -1 5 C-1 6.32 -1 7.64 -1 9 C-2.9375 8.6875 -2.9375 8.6875 -5 8 C-5.33 7.01 -5.66 6.02 -6 5 C-5.34 5 -4.68 5 -4 5 C-3.67 4.34 -3.34 3.68 -3 3 C-2.01 3 -1.02 3 0 3 C0 2.01 0 1.02 0 0 Z " fill="#6A696A" transform="translate(380,347)"/>
<path d="M0 0 C1.32 0.33 2.64 0.66 4 1 C4.33 3.31 4.66 5.62 5 8 C4.67 7.34 4.34 6.68 4 6 C2.68 6 1.36 6 0 6 C0 4.02 0 2.04 0 0 Z " fill="#3B3B3B" transform="translate(384,344)"/>
<path d="M0 0 C3.63 0 7.26 0 11 0 C11.33 0.66 11.66 1.32 12 2 C11.071875 1.979375 10.14375 1.95875 9.1875 1.9375 C5.97713989 1.84230396 5.97713989 1.84230396 3 3 C2.01 2.67 1.02 2.34 0 2 C0 1.34 0 0.68 0 0 Z " fill="#363636" transform="translate(209,345)"/>
<path d="M0 0 C0.99 0.33 1.98 0.66 3 1 C3.3125 3.1875 3.3125 3.1875 3 6 C0.5 8.8125 0.5 8.8125 -2 11 C-1.53078003 8.58686871 -1.0498364 6.19380821 -0.4375 3.8125 C0.07821351 1.98673164 0.07821351 1.98673164 0 0 Z " fill="#686868" transform="translate(300,291)"/>
<path d="M0 0 C0.33 0.99 0.66 1.98 1 3 C-2.03797468 8.62587904 -2.03797468 8.62587904 -5.25 9.875 C-5.8275 9.91625 -6.405 9.9575 -7 10 C-4.93992341 6.39486597 -2.6486859 3.19668988 0 0 Z " fill="#656565" transform="translate(358,148)"/>
<path d="M0 0 C0.99 0 1.98 0 3 0 C1.125 5.75 1.125 5.75 0 8 C-0.66 8 -1.32 8 -2 8 C-1.125 2.25 -1.125 2.25 0 0 Z " fill="#656565" transform="translate(143,225)"/>
<path d="M0 0 C0.66 0 1.32 0 2 0 C2.12117187 0.63808594 2.24234375 1.27617187 2.3671875 1.93359375 C2.53476563 2.75988281 2.70234375 3.58617187 2.875 4.4375 C3.03742188 5.26121094 3.19984375 6.08492187 3.3671875 6.93359375 C3.57601562 7.61550781 3.78484375 8.29742187 4 9 C4.66 9.33 5.32 9.66 6 10 C5.67 10.66 5.34 11.32 5 12 C4.34 12 3.68 12 3 12 C2.49663233 10.37604003 1.99741024 8.75079459 1.5 7.125 C1.2215625 6.22007812 0.943125 5.31515625 0.65625 4.3828125 C0 2 0 2 0 0 Z " fill="#696969" transform="translate(185,156)"/>
<path d="M0 0 C0.103125 0.639375 0.20625 1.27875 0.3125 1.9375 C0.539375 2.618125 0.76625 3.29875 1 4 C1.99 4.33 2.98 4.66 4 5 C4.33 5.99 4.66 6.98 5 8 C4.01 8.495 4.01 8.495 3 9 C2.34 8.34 1.68 7.68 1 7 C0.34 7 -0.32 7 -1 7 C-0.67 4.69 -0.34 2.38 0 0 Z " fill="#636363" transform="translate(353,367)"/>
<path d="M0 0 C2.64 0 5.28 0 8 0 C7.38125 0.2475 6.7625 0.495 6.125 0.75 C3.64931313 2.20628639 3.04874998 3.37812506 2 6 C1.01 5.67 0.02 5.34 -1 5 C-0.67 3.35 -0.34 1.7 0 0 Z " fill="#383838" transform="translate(345,360)"/>
<path d="M0 0 C0.66 0 1.32 0 2 0 C1.43628586 3.26954202 0.50037734 4.82575883 -2 7 C-2.99 6.67 -3.98 6.34 -5 6 C-4.67 5.34 -4.34 4.68 -4 4 C-3.34 4 -2.68 4 -2 4 C-2 3.34 -2 2.68 -2 2 C-1.34 2 -0.68 2 0 2 C0 1.34 0 0.68 0 0 Z " fill="#6F6F6F" transform="translate(248,309)"/>
<path d="M0 0 C1.32 0.66 2.64 1.32 4 2 C4 2.99 4 3.98 4 5 C1.36 4.67 -1.28 4.34 -4 4 C-3.01 3.67 -2.02 3.34 -1 3 C-0.67 2.01 -0.34 1.02 0 0 Z " fill="#4A494A" transform="translate(269,202)"/>
<path d="M0 0 C0 0.33 0 0.66 0 1 C-1.36125 1.433125 -1.36125 1.433125 -2.75 1.875 C-5.32202908 2.76531776 -7.61346766 3.71494413 -10 5 C-9.625 3.0625 -9.625 3.0625 -9 1 C-6.04335481 -0.4783226 -3.25770263 -0.06032783 0 0 Z " fill="#727272" transform="translate(385,340)"/>
<path d="M0 0 C0 0.66 0 1.32 0 2 C-2 3.625 -2 3.625 -4 5 C-5.32 4.34 -6.64 3.68 -8 3 C-4.93882432 0.37613513 -4.26826873 0 0 0 Z " fill="#5D5D5D" transform="translate(327,294)"/>
<path d="M0 0 C1 2 2 4 3 6 C2.01 6.33 1.02 6.66 0 7 C-0.66 6.67 -1.32 6.34 -2 6 C-2 4.35 -2 2.7 -2 1 C-1.34 0.67 -0.68 0.34 0 0 Z " fill="#383838" transform="translate(148,126)"/>
<path d="M0 0 C2 3 2 3 1.625 5.1875 C1.41875 5.785625 1.2125 6.38375 1 7 C0.67 6.67 0.34 6.34 0 6 C-1.51469448 5.76807135 -3.03754562 5.58784762 -4.5625 5.4375 C-5.38878906 5.35371094 -6.21507812 5.26992188 -7.06640625 5.18359375 C-7.70449219 5.12300781 -8.34257812 5.06242187 -9 5 C-9 4.67 -9 4.34 -9 4 C-6.03 4 -3.06 4 0 4 C0 2.68 0 1.36 0 0 Z " fill="#515151" transform="translate(347,325)"/>
<path d="M0 0 C1.35432675 1.31200404 2.68733482 2.64631404 4 4 C4 4.33 4 4.66 4 5 C2.35 5 0.7 5 -1 5 C-1.33 4.01 -1.66 3.02 -2 2 C-1.34 1.34 -0.68 0.68 0 0 Z " fill="#393939" transform="translate(349,312)"/>
<path d="M0 0 C6.75 0.75 6.75 0.75 9 3 C7.35 3.66 5.7 4.32 4 5 C3.67 4.01 3.34 3.02 3 2 C2.01 1.34 1.02 0.68 0 0 Z " fill="#696969" transform="translate(252,305)"/>
<path d="M0 0 C-0.33 0.99 -0.66 1.98 -1 3 C-2.65 3 -4.3 3 -6 3 C-6.33 2.34 -6.66 1.68 -7 1 C-3.375 -1.125 -3.375 -1.125 0 0 Z " fill="#363636" transform="translate(344,243)"/>
<path d="M0 0 C0.33 0 0.66 0 1 0 C1 2.97 1 5.94 1 9 C-0.98 9.99 -0.98 9.99 -3 11 C-2.67 9.68 -2.34 8.36 -2 7 C-1.34 7 -0.68 7 0 7 C0 4.69 0 2.38 0 0 Z " fill="#6C6C6C" transform="translate(233,227)"/>
<path d="M0 0 C0.66 0 1.32 0 2 0 C2 0.66 2 1.32 2 2 C2.99 1.67 3.98 1.34 5 1 C5.33 1.66 5.66 2.32 6 3 C5.67 3.66 5.34 4.32 5 5 C3.68 4.67 2.36 4.34 1 4 C1 3.34 1 2.68 1 2 C0.34 1.67 -0.32 1.34 -1 1 C-0.67 0.67 -0.34 0.34 0 0 Z " fill="#5A5A5A" transform="translate(105,401)"/>
<path d="M0 0 C6.625 -0.25 6.625 -0.25 10 2 C9.67 2.66 9.34 3.32 9 4 C8.01 4.33 7.02 4.66 6 5 C6 3.68 6 2.36 6 1 C4.02 1 2.04 1 0 1 C0 0.67 0 0.34 0 0 Z " fill="#737373" transform="translate(192,337)"/>
<path d="M0 0 C0.99 0.33 1.98 0.66 3 1 C2.67 2.65 2.34 4.3 2 6 C0.68 5.67 -0.64 5.34 -2 5 C-1.34 3.35 -0.68 1.7 0 0 Z " fill="#545454" transform="translate(276,268)"/>
<path d="M0 0 C1.98 0 3.96 0 6 0 C6.66 1.98 7.32 3.96 8 6 C6.66402348 5.19185349 5.331275 4.37836819 4 3.5625 C3.2575 3.11003906 2.515 2.65757812 1.75 2.19140625 C1.1725 1.79824219 0.595 1.40507812 0 1 C0 0.67 0 0.34 0 0 Z " fill="#5D5D5D" transform="translate(333,227)"/>
<path d="M0 0 C0.66 0.33 1.32 0.66 2 1 C1.67 2.65 1.34 4.3 1 6 C0.01 6 -0.98 6 -2 6 C-2 4.68 -2 3.36 -2 2 C-1.34 2 -0.68 2 0 2 C0 1.34 0 0.68 0 0 Z " fill="#515151" transform="translate(345,145)"/>
<path d="M0 0 C0.598125 0.350625 1.19625 0.70125 1.8125 1.0625 C1.8125 1.7225 1.8125 2.3825 1.8125 3.0625 C0 3.6875 0 3.6875 -2.1875 4.0625 C-3.1775 3.4025 -4.1675 2.7425 -5.1875 2.0625 C-5.1875 1.4025 -5.1875 0.7425 -5.1875 0.0625 C-2.1875 -0.9375 -2.1875 -0.9375 0 0 Z " fill="#383838" transform="translate(183.1875,132.9375)"/>
</svg>
